<svg id="visual" viewBox="0 0 900 900" width="900" height="900" xmlns="http://www.w3.org/2000/svg" xmlns:xlink="http://www.w3.org/1999/xlink" version="1.1"><g transform="translate(437.53098827436486 414.8485736601491)"><path d="M179.6 -306.7C238 -277.5 293.9 -239.7 333.9 -187.2C373.9 -134.7 398 -67.3 395.8 -1.3C393.6 64.8 365.3 129.7 331.8 193.5C298.3 257.3 259.6 320 203.5 362.6C147.3 405.2 73.7 427.6 1.3 425.3C-71 423 -142 396 -190.7 349.1C-239.4 302.2 -265.9 235.5 -298.7 174C-331.5 112.5 -370.8 56.3 -371 -0.1C-371.2 -56.5 -332.4 -113 -293.6 -164.2C-254.9 -215.5 -216.2 -261.5 -167.3 -296C-118.3 -330.6 -59.2 -353.8 0.7 -355.1C60.7 -356.4 121.3 -335.8 179.6 -306.7" fill="#171738"></path></g></svg>