<svg id="visual" viewBox="0 0 900 900" width="900" height="900" xmlns="http://www.w3.org/2000/svg" xmlns:xlink="http://www.w3.org/1999/xlink" version="1.1"><g transform="translate(434.19318424557457 465.85053719918403)"><path d="M178.4 -323.7C227.1 -280.8 259.7 -224.8 301.6 -168.7C343.5 -112.5 394.8 -56.3 402.9 4.7C411.1 65.7 376.1 131.3 338.8 195.4C301.5 259.5 261.7 322 204.9 347.2C148 372.3 74 360.2 -0.5 361C-75 361.9 -150 375.8 -208 351.3C-266 326.8 -307.1 263.9 -333.3 199C-359.4 134 -370.7 67 -372.3 -0.9C-373.9 -68.8 -365.8 -137.7 -335.2 -195C-304.6 -252.3 -251.6 -298 -191.9 -334.6C-132.3 -371.2 -66.2 -398.6 -0.7 -397.4C64.8 -396.3 129.7 -366.6 178.4 -323.7" fill="#171738"></path></g></svg>