<svg id="visual" viewBox="0 0 960 540" width="960" height="540" xmlns="http://www.w3.org/2000/svg" xmlns:xlink="http://www.w3.org/1999/xlink" version="1.1"><path d="M0 400L22.8 398.7C45.7 397.3 91.3 394.7 137 403.2C182.7 411.7 228.3 431.3 274 439C319.7 446.7 365.3 442.3 411.2 433C457 423.7 503 409.3 548.8 398.8C594.7 388.3 640.3 381.7 686 391C731.7 400.3 777.3 425.7 823 427.3C868.7 429 914.3 407 937.2 396L960 385L960 541L937.2 541C914.3 541 868.7 541 823 541C777.3 541 731.7 541 686 541C640.3 541 594.7 541 548.8 541C503 541 457 541 411.2 541C365.3 541 319.7 541 274 541C228.3 541 182.7 541 137 541C91.3 541 45.7 541 22.8 541L0 541Z" fill="#4343fe"></path><path d="M0 404L22.8 406.8C45.7 409.7 91.3 415.3 137 416.2C182.7 417 228.3 413 274 421.5C319.7 430 365.3 451 411.2 451.8C457 452.7 503 433.3 548.8 429.8C594.7 426.3 640.3 438.7 686 440.8C731.7 443 777.3 435 823 431.2C868.7 427.3 914.3 427.7 937.2 427.8L960 428L960 541L937.2 541C914.3 541 868.7 541 823 541C777.3 541 731.7 541 686 541C640.3 541 594.7 541 548.8 541C503 541 457 541 411.2 541C365.3 541 319.7 541 274 541C228.3 541 182.7 541 137 541C91.3 541 45.7 541 22.8 541L0 541Z" fill="#353cd4"></path><path d="M0 428L22.8 434.8C45.7 441.7 91.3 455.3 137 463.3C182.7 471.3 228.3 473.7 274 469.8C319.7 466 365.3 456 411.2 448.2C457 440.3 503 434.7 548.8 435.2C594.7 435.7 640.3 442.3 686 441.5C731.7 440.7 777.3 432.3 823 429.7C868.7 427 914.3 430 937.2 431.5L960 433L960 541L937.2 541C914.3 541 868.7 541 823 541C777.3 541 731.7 541 686 541C640.3 541 594.7 541 548.8 541C503 541 457 541 411.2 541C365.3 541 319.7 541 274 541C228.3 541 182.7 541 137 541C91.3 541 45.7 541 22.8 541L0 541Z" fill="#2b33aa"></path><path d="M0 447L22.8 448.3C45.7 449.7 91.3 452.3 137 459.2C182.7 466 228.3 477 274 477.3C319.7 477.7 365.3 467.3 411.2 460.2C457 453 503 449 548.8 456.7C594.7 464.3 640.3 483.7 686 486.5C731.7 489.3 777.3 475.7 823 468.8C868.7 462 914.3 462 937.2 462L960 462L960 541L937.2 541C914.3 541 868.7 541 823 541C777.3 541 731.7 541 686 541C640.3 541 594.7 541 548.8 541C503 541 457 541 411.2 541C365.3 541 319.7 541 274 541C228.3 541 182.7 541 137 541C91.3 541 45.7 541 22.8 541L0 541Z" fill="#242a82"></path><path d="M0 482L22.8 486.3C45.7 490.7 91.3 499.3 137 502.3C182.7 505.3 228.3 502.7 274 503C319.7 503.3 365.3 506.7 411.2 508.5C457 510.3 503 510.7 548.8 510C594.7 509.3 640.3 507.7 686 504.5C731.7 501.3 777.3 496.7 823 497C868.7 497.3 914.3 502.7 937.2 505.3L960 508L960 541L937.2 541C914.3 541 868.7 541 823 541C777.3 541 731.7 541 686 541C640.3 541 594.7 541 548.8 541C503 541 457 541 411.2 541C365.3 541 319.7 541 274 541C228.3 541 182.7 541 137 541C91.3 541 45.7 541 22.8 541L0 541Z" fill="#1e215c"></path><path d="M0 519L22.8 516.3C45.7 513.7 91.3 508.3 137 507.2C182.7 506 228.3 509 274 510.2C319.7 511.3 365.3 510.7 411.2 511.5C457 512.3 503 514.7 548.8 511.8C594.7 509 640.3 501 686 500.5C731.7 500 777.3 507 823 507.5C868.7 508 914.3 502 937.2 499L960 496L960 541L937.2 541C914.3 541 868.7 541 823 541C777.3 541 731.7 541 686 541C640.3 541 594.7 541 548.8 541C503 541 457 541 411.2 541C365.3 541 319.7 541 274 541C228.3 541 182.7 541 137 541C91.3 541 45.7 541 22.8 541L0 541Z" fill="#171738"></path></svg>