<svg id="visual" viewBox="0 0 960 540" width="960" height="540" xmlns="http://www.w3.org/2000/svg" xmlns:xlink="http://www.w3.org/1999/xlink" version="1.1"><rect x="0" y="0" width="960" height="540" fill="#EDF0FF"></rect><defs><linearGradient id="grad1_0" x1="43.8%" y1="0%" x2="100%" y2="100%"><stop offset="14.444444444444446%" stop-color="#4343fe" stop-opacity="1"></stop><stop offset="85.55555555555554%" stop-color="#4343fe" stop-opacity="1"></stop></linearGradient></defs><defs><linearGradient id="grad1_1" x1="43.8%" y1="0%" x2="100%" y2="100%"><stop offset="14.444444444444446%" stop-color="#4343fe" stop-opacity="1"></stop><stop offset="85.55555555555554%" stop-color="#5a5fff" stop-opacity="1"></stop></linearGradient></defs><defs><linearGradient id="grad1_2" x1="43.8%" y1="0%" x2="100%" y2="100%"><stop offset="14.444444444444446%" stop-color="#7179ff" stop-opacity="1"></stop><stop offset="85.55555555555554%" stop-color="#5a5fff" stop-opacity="1"></stop></linearGradient></defs><defs><linearGradient id="grad1_3" x1="43.8%" y1="0%" x2="100%" y2="100%"><stop offset="14.444444444444446%" stop-color="#7179ff" stop-opacity="1"></stop><stop offset="85.55555555555554%" stop-color="#8892ff" stop-opacity="1"></stop></linearGradient></defs><defs><linearGradient id="grad1_4" x1="43.8%" y1="0%" x2="100%" y2="100%"><stop offset="14.444444444444446%" stop-color="#a0aaff" stop-opacity="1"></stop><stop offset="85.55555555555554%" stop-color="#8892ff" stop-opacity="1"></stop></linearGradient></defs><defs><linearGradient id="grad1_5" x1="43.8%" y1="0%" x2="100%" y2="100%"><stop offset="14.444444444444446%" stop-color="#a0aaff" stop-opacity="1"></stop><stop offset="85.55555555555554%" stop-color="#b8c2ff" stop-opacity="1"></stop></linearGradient></defs><defs><linearGradient id="grad1_6" x1="43.8%" y1="0%" x2="100%" y2="100%"><stop offset="14.444444444444446%" stop-color="#d2d9ff" stop-opacity="1"></stop><stop offset="85.55555555555554%" stop-color="#b8c2ff" stop-opacity="1"></stop></linearGradient></defs><defs><linearGradient id="grad1_7" x1="43.8%" y1="0%" x2="100%" y2="100%"><stop offset="14.444444444444446%" stop-color="#d2d9ff" stop-opacity="1"></stop><stop offset="85.55555555555554%" stop-color="#edf0ff" stop-opacity="1"></stop></linearGradient></defs><defs><linearGradient id="grad2_0" x1="0%" y1="0%" x2="56.3%" y2="100%"><stop offset="14.444444444444446%" stop-color="#4343fe" stop-opacity="1"></stop><stop offset="85.55555555555554%" stop-color="#4343fe" stop-opacity="1"></stop></linearGradient></defs><defs><linearGradient id="grad2_1" x1="0%" y1="0%" x2="56.3%" y2="100%"><stop offset="14.444444444444446%" stop-color="#5a5fff" stop-opacity="1"></stop><stop offset="85.55555555555554%" stop-color="#4343fe" stop-opacity="1"></stop></linearGradient></defs><defs><linearGradient id="grad2_2" x1="0%" y1="0%" x2="56.3%" y2="100%"><stop offset="14.444444444444446%" stop-color="#5a5fff" stop-opacity="1"></stop><stop offset="85.55555555555554%" stop-color="#7179ff" stop-opacity="1"></stop></linearGradient></defs><defs><linearGradient id="grad2_3" x1="0%" y1="0%" x2="56.3%" y2="100%"><stop offset="14.444444444444446%" stop-color="#8892ff" stop-opacity="1"></stop><stop offset="85.55555555555554%" stop-color="#7179ff" stop-opacity="1"></stop></linearGradient></defs><defs><linearGradient id="grad2_4" x1="0%" y1="0%" x2="56.3%" y2="100%"><stop offset="14.444444444444446%" stop-color="#8892ff" stop-opacity="1"></stop><stop offset="85.55555555555554%" stop-color="#a0aaff" stop-opacity="1"></stop></linearGradient></defs><defs><linearGradient id="grad2_5" x1="0%" y1="0%" x2="56.3%" y2="100%"><stop offset="14.444444444444446%" stop-color="#b8c2ff" stop-opacity="1"></stop><stop offset="85.55555555555554%" stop-color="#a0aaff" stop-opacity="1"></stop></linearGradient></defs><defs><linearGradient id="grad2_6" x1="0%" y1="0%" x2="56.3%" y2="100%"><stop offset="14.444444444444446%" stop-color="#b8c2ff" stop-opacity="1"></stop><stop offset="85.55555555555554%" stop-color="#d2d9ff" stop-opacity="1"></stop></linearGradient></defs><defs><linearGradient id="grad2_7" x1="0%" y1="0%" x2="56.3%" y2="100%"><stop offset="14.444444444444446%" stop-color="#edf0ff" stop-opacity="1"></stop><stop offset="85.55555555555554%" stop-color="#d2d9ff" stop-opacity="1"></stop></linearGradient></defs><g transform="translate(960, 0)"><path d="M0 405C-19.6 306.3 -39.1 207.6 -107.5 186.2C-175.9 164.8 -293 220.7 -350.7 202.5C-408.5 184.3 -406.7 92.2 -405 0L0 0Z" fill="#dfe5ff"></path><path d="M0 354.4C-17.1 268 -34.2 181.7 -94.1 162.9C-153.9 144.2 -256.4 193.1 -306.9 177.2C-357.4 161.3 -355.9 80.7 -354.4 0L0 0Z" fill="#c5cdff"></path><path d="M0 303.8C-14.7 229.7 -29.4 155.7 -80.6 139.6C-131.9 123.6 -219.8 165.5 -263.1 151.9C-306.3 138.3 -305 69.1 -303.7 0L0 0Z" fill="#acb6ff"></path><path d="M0 253.1C-12.2 191.4 -24.5 129.8 -67.2 116.4C-109.9 103 -183.1 137.9 -219.2 126.6C-255.3 115.2 -254.2 57.6 -253.1 0L0 0Z" fill="#949eff"></path><path d="M0 202.5C-9.8 153.2 -19.6 103.8 -53.7 93.1C-87.9 82.4 -146.5 110.3 -175.4 101.3C-204.2 92.2 -203.4 46.1 -202.5 0L0 0Z" fill="#7c86ff"></path><path d="M0 151.9C-7.3 114.9 -14.7 77.9 -40.3 69.8C-65.9 61.8 -109.9 82.7 -131.5 75.9C-153.2 69.1 -152.5 34.6 -151.9 0L0 0Z" fill="#666cff"></path><path d="M0 101.3C-4.9 76.6 -9.8 51.9 -26.9 46.5C-44 41.2 -73.3 55.2 -87.7 50.6C-102.1 46.1 -101.7 23 -101.2 0L0 0Z" fill="#4f52ff"></path><path d="M0 50.6C-2.4 38.3 -4.9 26 -13.4 23.3C-22 20.6 -36.6 27.6 -43.8 25.3C-51.1 23 -50.8 11.5 -50.6 0L0 0Z" fill="#4343fe"></path></g><g transform="translate(0, 540)"><path d="M0 -405C55.3 -368.2 110.6 -331.4 174.5 -302.2C238.4 -273.1 310.9 -251.6 350.7 -202.5C390.6 -153.4 397.8 -76.7 405 0L0 0Z" fill="#dfe5ff"></path><path d="M0 -354.4C48.4 -322.2 96.8 -290 152.7 -264.5C208.6 -239 272 -220.1 306.9 -177.2C341.8 -134.2 348.1 -67.1 354.4 0L0 0Z" fill="#c5cdff"></path><path d="M0 -303.7C41.5 -276.1 83 -248.5 130.9 -226.7C178.8 -204.8 233.2 -188.7 263.1 -151.9C292.9 -115.1 298.3 -57.5 303.8 0L0 0Z" fill="#acb6ff"></path><path d="M0 -253.1C34.6 -230.1 69.1 -207.1 109.1 -188.9C149 -170.7 194.3 -157.2 219.2 -126.6C244.1 -95.9 248.6 -47.9 253.1 0L0 0Z" fill="#949eff"></path><path d="M0 -202.5C27.7 -184.1 55.3 -165.7 87.2 -151.1C119.2 -136.5 155.4 -125.8 175.4 -101.3C195.3 -76.7 198.9 -38.4 202.5 0L0 0Z" fill="#7c86ff"></path><path d="M0 -151.9C20.7 -138.1 41.5 -124.3 65.4 -113.3C89.4 -102.4 116.6 -94.3 131.5 -75.9C146.5 -57.5 149.2 -28.8 151.9 0L0 0Z" fill="#666cff"></path><path d="M0 -101.2C13.8 -92 27.7 -82.8 43.6 -75.6C59.6 -68.3 77.7 -62.9 87.7 -50.6C97.6 -38.4 99.4 -19.2 101.3 0L0 0Z" fill="#4f52ff"></path><path d="M0 -50.6C6.9 -46 13.8 -41.4 21.8 -37.8C29.8 -34.1 38.9 -31.4 43.8 -25.3C48.8 -19.2 49.7 -9.6 50.6 0L0 0Z" fill="#4343fe"></path></g></svg>