<svg id="visual" viewBox="0 0 960 540" width="960" height="540" xmlns="http://www.w3.org/2000/svg" xmlns:xlink="http://www.w3.org/1999/xlink" version="1.1"><rect x="0" y="0" width="960" height="540" fill="#171738"></rect><defs><linearGradient id="grad1_0" x1="43.8%" y1="100%" x2="100%" y2="0%"><stop offset="14.444444444444446%" stop-color="#edf0ff" stop-opacity="1"></stop><stop offset="85.55555555555554%" stop-color="#edf0ff" stop-opacity="1"></stop></linearGradient></defs><defs><linearGradient id="grad1_1" x1="43.8%" y1="100%" x2="100%" y2="0%"><stop offset="14.444444444444446%" stop-color="#edf0ff" stop-opacity="1"></stop><stop offset="85.55555555555554%" stop-color="#cacde0" stop-opacity="1"></stop></linearGradient></defs><defs><linearGradient id="grad1_2" x1="43.8%" y1="100%" x2="100%" y2="0%"><stop offset="14.444444444444446%" stop-color="#a9abc2" stop-opacity="1"></stop><stop offset="85.55555555555554%" stop-color="#cacde0" stop-opacity="1"></stop></linearGradient></defs><defs><linearGradient id="grad1_3" x1="43.8%" y1="100%" x2="100%" y2="0%"><stop offset="14.444444444444446%" stop-color="#a9abc2" stop-opacity="1"></stop><stop offset="85.55555555555554%" stop-color="#898ba5" stop-opacity="1"></stop></linearGradient></defs><defs><linearGradient id="grad1_4" x1="43.8%" y1="100%" x2="100%" y2="0%"><stop offset="14.444444444444446%" stop-color="#6a6b88" stop-opacity="1"></stop><stop offset="85.55555555555554%" stop-color="#898ba5" stop-opacity="1"></stop></linearGradient></defs><defs><linearGradient id="grad1_5" x1="43.8%" y1="100%" x2="100%" y2="0%"><stop offset="14.444444444444446%" stop-color="#6a6b88" stop-opacity="1"></stop><stop offset="85.55555555555554%" stop-color="#4d4d6c" stop-opacity="1"></stop></linearGradient></defs><defs><linearGradient id="grad1_6" x1="43.8%" y1="100%" x2="100%" y2="0%"><stop offset="14.444444444444446%" stop-color="#323152" stop-opacity="1"></stop><stop offset="85.55555555555554%" stop-color="#4d4d6c" stop-opacity="1"></stop></linearGradient></defs><defs><linearGradient id="grad1_7" x1="43.8%" y1="100%" x2="100%" y2="0%"><stop offset="14.444444444444446%" stop-color="#323152" stop-opacity="1"></stop><stop offset="85.55555555555554%" stop-color="#171738" stop-opacity="1"></stop></linearGradient></defs><defs><linearGradient id="grad2_0" x1="0%" y1="100%" x2="56.3%" y2="0%"><stop offset="14.444444444444446%" stop-color="#edf0ff" stop-opacity="1"></stop><stop offset="85.55555555555554%" stop-color="#edf0ff" stop-opacity="1"></stop></linearGradient></defs><defs><linearGradient id="grad2_1" x1="0%" y1="100%" x2="56.3%" y2="0%"><stop offset="14.444444444444446%" stop-color="#cacde0" stop-opacity="1"></stop><stop offset="85.55555555555554%" stop-color="#edf0ff" stop-opacity="1"></stop></linearGradient></defs><defs><linearGradient id="grad2_2" x1="0%" y1="100%" x2="56.3%" y2="0%"><stop offset="14.444444444444446%" stop-color="#cacde0" stop-opacity="1"></stop><stop offset="85.55555555555554%" stop-color="#a9abc2" stop-opacity="1"></stop></linearGradient></defs><defs><linearGradient id="grad2_3" x1="0%" y1="100%" x2="56.3%" y2="0%"><stop offset="14.444444444444446%" stop-color="#898ba5" stop-opacity="1"></stop><stop offset="85.55555555555554%" stop-color="#a9abc2" stop-opacity="1"></stop></linearGradient></defs><defs><linearGradient id="grad2_4" x1="0%" y1="100%" x2="56.3%" y2="0%"><stop offset="14.444444444444446%" stop-color="#898ba5" stop-opacity="1"></stop><stop offset="85.55555555555554%" stop-color="#6a6b88" stop-opacity="1"></stop></linearGradient></defs><defs><linearGradient id="grad2_5" x1="0%" y1="100%" x2="56.3%" y2="0%"><stop offset="14.444444444444446%" stop-color="#4d4d6c" stop-opacity="1"></stop><stop offset="85.55555555555554%" stop-color="#6a6b88" stop-opacity="1"></stop></linearGradient></defs><defs><linearGradient id="grad2_6" x1="0%" y1="100%" x2="56.3%" y2="0%"><stop offset="14.444444444444446%" stop-color="#4d4d6c" stop-opacity="1"></stop><stop offset="85.55555555555554%" stop-color="#323152" stop-opacity="1"></stop></linearGradient></defs><defs><linearGradient id="grad2_7" x1="0%" y1="100%" x2="56.3%" y2="0%"><stop offset="14.444444444444446%" stop-color="#171738" stop-opacity="1"></stop><stop offset="85.55555555555554%" stop-color="#323152" stop-opacity="1"></stop></linearGradient></defs><g transform="translate(960, 540)"><path d="M-270 0C-269.6 -29.7 -269.2 -59.5 -256.8 -83.4C-244.4 -107.4 -220 -125.5 -201.4 -146.4C-182.8 -167.2 -170 -190.8 -150.5 -207.1C-130.9 -223.4 -104.7 -232.3 -78.5 -241.6C-52.3 -250.8 -26.1 -260.4 0 -270L0 0Z" fill="#242445"></path><path d="M-236.2 0C-235.9 -26 -235.5 -52.1 -224.7 -73C-213.8 -93.9 -192.5 -109.8 -176.3 -128.1C-160 -146.3 -148.8 -167 -131.7 -181.2C-114.6 -195.5 -91.6 -203.3 -68.7 -211.4C-45.8 -219.5 -22.9 -227.9 0 -236.2L0 0Z" fill="#3f3f5f"></path><path d="M-202.5 0C-202.2 -22.3 -201.9 -44.6 -192.6 -62.6C-183.3 -80.5 -165 -94.1 -151.1 -109.8C-137.1 -125.4 -127.5 -143.1 -112.9 -155.3C-98.2 -167.5 -78.5 -174.2 -58.9 -181.2C-39.2 -188.1 -19.6 -195.3 0 -202.5L0 0Z" fill="#5c5c7a"></path><path d="M-168.7 0C-168.5 -18.6 -168.2 -37.2 -160.5 -52.1C-152.7 -67.1 -137.5 -78.4 -125.9 -91.5C-114.3 -104.5 -106.3 -119.3 -94 -129.4C-81.8 -139.6 -65.4 -145.2 -49.1 -151C-32.7 -156.8 -16.3 -162.8 0 -168.7L0 0Z" fill="#797b96"></path><path d="M-135 0C-134.8 -14.9 -134.6 -29.7 -128.4 -41.7C-122.2 -53.7 -110 -62.7 -100.7 -73.2C-91.4 -83.6 -85 -95.4 -75.2 -103.6C-65.5 -111.7 -52.3 -116.2 -39.2 -120.8C-26.1 -125.4 -13.1 -130.2 0 -135L0 0Z" fill="#999bb3"></path><path d="M-101.2 0C-101.1 -11.2 -100.9 -22.3 -96.3 -31.3C-91.6 -40.3 -82.5 -47.1 -75.5 -54.9C-68.6 -62.7 -63.8 -71.6 -56.4 -77.7C-49.1 -83.8 -39.3 -87.1 -29.4 -90.6C-19.6 -94.1 -9.8 -97.7 0 -101.2L0 0Z" fill="#b9bcd1"></path><path d="M-67.5 0C-67.4 -7.4 -67.3 -14.9 -64.2 -20.9C-61.1 -26.8 -55 -31.4 -50.4 -36.6C-45.7 -41.8 -42.5 -47.7 -37.6 -51.8C-32.7 -55.8 -26.2 -58.1 -19.6 -60.4C-13.1 -62.7 -6.5 -65.1 0 -67.5L0 0Z" fill="#dbdef0"></path><path d="M-33.7 0C-33.7 -3.7 -33.6 -7.4 -32.1 -10.4C-30.5 -13.4 -27.5 -15.7 -25.2 -18.3C-22.9 -20.9 -21.3 -23.9 -18.8 -25.9C-16.4 -27.9 -13.1 -29 -9.8 -30.2C-6.5 -31.4 -3.3 -32.6 0 -33.7L0 0Z" fill="#edf0ff"></path></g><g transform="translate(0, 0)"><path d="M270 0C269.4 29.5 268.9 59 256.8 83.4C244.7 107.9 221.1 127.3 201.4 146.4C181.8 165.4 166.2 184 147.5 203.1C128.9 222.2 107.3 241.7 82.2 253C57.1 264.2 28.6 267.1 0 270L0 0Z" fill="#242445"></path><path d="M236.3 0C235.8 25.8 235.3 51.6 224.7 73C214.1 94.4 193.4 111.4 176.3 128.1C159.1 144.7 145.4 161 129.1 177.7C112.8 194.4 93.9 211.5 71.9 221.4C50 231.2 25 233.7 0 236.3L0 0Z" fill="#3f3f5f"></path><path d="M202.5 0C202.1 22.1 201.7 44.2 192.6 62.6C183.5 80.9 165.8 95.5 151.1 109.8C136.4 124 124.6 138 110.7 152.3C96.7 166.6 80.5 181.3 61.6 189.7C42.8 198.2 21.4 200.3 0 202.5L0 0Z" fill="#5c5c7a"></path><path d="M168.8 0C168.4 18.4 168 36.9 160.5 52.1C152.9 67.4 138.2 79.6 125.9 91.5C113.6 103.4 103.9 115 92.2 126.9C80.6 138.8 67.1 151.1 51.4 158.1C35.7 165.1 17.8 166.9 0 168.8L0 0Z" fill="#797b96"></path><path d="M135 0C134.7 14.7 134.4 29.5 128.4 41.7C122.3 53.9 110.5 63.7 100.7 73.2C90.9 82.7 83.1 92 73.8 101.5C64.5 111.1 53.6 120.9 41.1 126.5C28.6 132.1 14.3 133.6 0 135L0 0Z" fill="#999bb3"></path><path d="M101.3 0C101 11.1 100.8 22.1 96.3 31.3C91.8 40.5 82.9 47.8 75.5 54.9C68.2 62 62.3 69 55.3 76.1C48.3 83.3 40.2 90.7 30.8 94.9C21.4 99.1 10.7 100.2 0 101.3L0 0Z" fill="#b9bcd1"></path><path d="M67.5 0C67.4 7.4 67.2 14.7 64.2 20.9C61.2 27 55.3 31.8 50.4 36.6C45.5 41.3 41.5 46 36.9 50.8C32.2 55.5 26.8 60.4 20.5 63.2C14.3 66.1 7.1 66.8 0 67.5L0 0Z" fill="#dbdef0"></path><path d="M33.8 0C33.7 3.7 33.6 7.4 32.1 10.4C30.6 13.5 27.6 15.9 25.2 18.3C22.7 20.7 20.8 23 18.4 25.4C16.1 27.8 13.4 30.2 10.3 31.6C7.1 33 3.6 33.4 0 33.8L0 0Z" fill="#edf0ff"></path></g></svg>