<svg id="visual" viewBox="0 0 540 960" width="540" height="960" xmlns="http://www.w3.org/2000/svg" xmlns:xlink="http://www.w3.org/1999/xlink" version="1.1"><rect x="0" y="0" width="540" height="960" fill="#EDF0FF"></rect><defs><linearGradient id="grad1_0" x1="0%" y1="100%" x2="100%" y2="0%"><stop offset="30%" stop-color="#4343fe" stop-opacity="1"></stop><stop offset="70%" stop-color="#4343fe" stop-opacity="1"></stop></linearGradient></defs><defs><linearGradient id="grad1_1" x1="0%" y1="100%" x2="100%" y2="0%"><stop offset="30%" stop-color="#4343fe" stop-opacity="1"></stop><stop offset="70%" stop-color="#5a5fff" stop-opacity="1"></stop></linearGradient></defs><defs><linearGradient id="grad1_2" x1="0%" y1="100%" x2="100%" y2="0%"><stop offset="30%" stop-color="#7179ff" stop-opacity="1"></stop><stop offset="70%" stop-color="#5a5fff" stop-opacity="1"></stop></linearGradient></defs><defs><linearGradient id="grad1_3" x1="0%" y1="100%" x2="100%" y2="0%"><stop offset="30%" stop-color="#7179ff" stop-opacity="1"></stop><stop offset="70%" stop-color="#8892ff" stop-opacity="1"></stop></linearGradient></defs><defs><linearGradient id="grad1_4" x1="0%" y1="100%" x2="100%" y2="0%"><stop offset="30%" stop-color="#a0aaff" stop-opacity="1"></stop><stop offset="70%" stop-color="#8892ff" stop-opacity="1"></stop></linearGradient></defs><defs><linearGradient id="grad1_5" x1="0%" y1="100%" x2="100%" y2="0%"><stop offset="30%" stop-color="#a0aaff" stop-opacity="1"></stop><stop offset="70%" stop-color="#b8c2ff" stop-opacity="1"></stop></linearGradient></defs><defs><linearGradient id="grad1_6" x1="0%" y1="100%" x2="100%" y2="0%"><stop offset="30%" stop-color="#d2d9ff" stop-opacity="1"></stop><stop offset="70%" stop-color="#b8c2ff" stop-opacity="1"></stop></linearGradient></defs><defs><linearGradient id="grad1_7" x1="0%" y1="100%" x2="100%" y2="0%"><stop offset="30%" stop-color="#d2d9ff" stop-opacity="1"></stop><stop offset="70%" stop-color="#edf0ff" stop-opacity="1"></stop></linearGradient></defs><defs><linearGradient id="grad2_0" x1="0%" y1="100%" x2="100%" y2="0%"><stop offset="30%" stop-color="#4343fe" stop-opacity="1"></stop><stop offset="70%" stop-color="#4343fe" stop-opacity="1"></stop></linearGradient></defs><defs><linearGradient id="grad2_1" x1="0%" y1="100%" x2="100%" y2="0%"><stop offset="30%" stop-color="#5a5fff" stop-opacity="1"></stop><stop offset="70%" stop-color="#4343fe" stop-opacity="1"></stop></linearGradient></defs><defs><linearGradient id="grad2_2" x1="0%" y1="100%" x2="100%" y2="0%"><stop offset="30%" stop-color="#5a5fff" stop-opacity="1"></stop><stop offset="70%" stop-color="#7179ff" stop-opacity="1"></stop></linearGradient></defs><defs><linearGradient id="grad2_3" x1="0%" y1="100%" x2="100%" y2="0%"><stop offset="30%" stop-color="#8892ff" stop-opacity="1"></stop><stop offset="70%" stop-color="#7179ff" stop-opacity="1"></stop></linearGradient></defs><defs><linearGradient id="grad2_4" x1="0%" y1="100%" x2="100%" y2="0%"><stop offset="30%" stop-color="#8892ff" stop-opacity="1"></stop><stop offset="70%" stop-color="#a0aaff" stop-opacity="1"></stop></linearGradient></defs><defs><linearGradient id="grad2_5" x1="0%" y1="100%" x2="100%" y2="0%"><stop offset="30%" stop-color="#b8c2ff" stop-opacity="1"></stop><stop offset="70%" stop-color="#a0aaff" stop-opacity="1"></stop></linearGradient></defs><defs><linearGradient id="grad2_6" x1="0%" y1="100%" x2="100%" y2="0%"><stop offset="30%" stop-color="#b8c2ff" stop-opacity="1"></stop><stop offset="70%" stop-color="#d2d9ff" stop-opacity="1"></stop></linearGradient></defs><defs><linearGradient id="grad2_7" x1="0%" y1="100%" x2="100%" y2="0%"><stop offset="30%" stop-color="#edf0ff" stop-opacity="1"></stop><stop offset="70%" stop-color="#d2d9ff" stop-opacity="1"></stop></linearGradient></defs><g transform="translate(540, 960)"><path d="M-405 0C-306.3 -19.6 -207.6 -39.1 -186.2 -107.5C-164.8 -175.9 -220.7 -293 -202.5 -350.7C-184.3 -408.5 -92.2 -406.7 0 -405L0 0Z" fill="#dfe5ff"></path><path d="M-354.4 0C-268 -17.1 -181.7 -34.2 -162.9 -94.1C-144.2 -153.9 -193.1 -256.4 -177.2 -306.9C-161.3 -357.4 -80.7 -355.9 0 -354.4L0 0Z" fill="#c5cdff"></path><path d="M-303.7 0C-229.7 -14.7 -155.7 -29.4 -139.6 -80.6C-123.6 -131.9 -165.5 -219.8 -151.9 -263.1C-138.3 -306.3 -69.1 -305 0 -303.7L0 0Z" fill="#acb6ff"></path><path d="M-253.1 0C-191.4 -12.2 -129.8 -24.5 -116.4 -67.2C-103 -109.9 -137.9 -183.1 -126.6 -219.2C-115.2 -255.3 -57.6 -254.2 0 -253.1L0 0Z" fill="#949eff"></path><path d="M-202.5 0C-153.2 -9.8 -103.8 -19.6 -93.1 -53.8C-82.4 -87.9 -110.3 -146.5 -101.3 -175.4C-92.2 -204.2 -46.1 -203.4 0 -202.5L0 0Z" fill="#7c86ff"></path><path d="M-151.9 0C-114.9 -7.3 -77.9 -14.7 -69.8 -40.3C-61.8 -65.9 -82.7 -109.9 -75.9 -131.5C-69.1 -153.2 -34.6 -152.5 0 -151.9L0 0Z" fill="#666cff"></path><path d="M-101.2 0C-76.6 -4.9 -51.9 -9.8 -46.5 -26.9C-41.2 -44 -55.2 -73.3 -50.6 -87.7C-46.1 -102.1 -23 -101.7 0 -101.2L0 0Z" fill="#4f52ff"></path><path d="M-50.6 0C-38.3 -2.4 -26 -4.9 -23.3 -13.4C-20.6 -22 -27.6 -36.6 -25.3 -43.8C-23 -51.1 -11.5 -50.8 0 -50.6L0 0Z" fill="#4343fe"></path></g><g transform="translate(0, 0)"><path d="M405 0C368.2 55.3 331.4 110.6 302.2 174.5C273.1 238.4 251.6 310.9 202.5 350.7C153.4 390.6 76.7 397.8 0 405L0 0Z" fill="#dfe5ff"></path><path d="M354.4 0C322.2 48.4 290 96.8 264.5 152.7C239 208.6 220.1 272 177.2 306.9C134.2 341.8 67.1 348.1 0 354.4L0 0Z" fill="#c5cdff"></path><path d="M303.8 0C276.1 41.5 248.5 83 226.7 130.9C204.8 178.8 188.7 233.2 151.9 263.1C115.1 292.9 57.5 298.3 0 303.8L0 0Z" fill="#acb6ff"></path><path d="M253.1 0C230.1 34.6 207.1 69.1 188.9 109.1C170.7 149 157.2 194.3 126.6 219.2C95.9 244.1 47.9 248.6 0 253.1L0 0Z" fill="#949eff"></path><path d="M202.5 0C184.1 27.7 165.7 55.3 151.1 87.2C136.5 119.2 125.8 155.4 101.3 175.4C76.7 195.3 38.4 198.9 0 202.5L0 0Z" fill="#7c86ff"></path><path d="M151.9 0C138.1 20.7 124.3 41.5 113.3 65.4C102.4 89.4 94.3 116.6 75.9 131.5C57.5 146.5 28.8 149.2 0 151.9L0 0Z" fill="#666cff"></path><path d="M101.3 0C92 13.8 82.8 27.7 75.6 43.6C68.3 59.6 62.9 77.7 50.6 87.7C38.4 97.6 19.2 99.4 0 101.3L0 0Z" fill="#4f52ff"></path><path d="M50.6 0C46 6.9 41.4 13.8 37.8 21.8C34.1 29.8 31.4 38.9 25.3 43.8C19.2 48.8 9.6 49.7 0 50.6L0 0Z" fill="#4343fe"></path></g></svg>