<svg id="visual" viewBox="0 0 540 960" width="540" height="960" xmlns="http://www.w3.org/2000/svg" xmlns:xlink="http://www.w3.org/1999/xlink" version="1.1"><path d="M0 713L12.8 710.3C25.7 707.7 51.3 702.3 77 717.3C102.7 732.3 128.3 767.7 154 781.3C179.7 795 205.3 787 231.2 770.5C257 754 283 729 308.8 710.5C334.7 692 360.3 680 386 696.5C411.7 713 437.3 758 463 760.8C488.7 763.7 514.3 724.3 527.2 704.7L540 685L540 961L527.2 961C514.3 961 488.7 961 463 961C437.3 961 411.7 961 386 961C360.3 961 334.7 961 308.8 961C283 961 257 961 231.2 961C205.3 961 179.7 961 154 961C128.3 961 102.7 961 77 961C51.3 961 25.7 961 12.8 961L0 961Z" fill="#4343fe"></path><path d="M0 718L12.8 723C25.7 728 51.3 738 77 739.7C102.7 741.3 128.3 734.7 154 749.8C179.7 765 205.3 802 231.2 803.7C257 805.3 283 771.7 308.8 765.7C334.7 759.7 360.3 781.3 386 785C411.7 788.7 437.3 774.3 463 767.7C488.7 761 514.3 762 527.2 762.5L540 763L540 961L527.2 961C514.3 961 488.7 961 463 961C437.3 961 411.7 961 386 961C360.3 961 334.7 961 308.8 961C283 961 257 961 231.2 961C205.3 961 179.7 961 154 961C128.3 961 102.7 961 77 961C51.3 961 25.7 961 12.8 961L0 961Z" fill="#353cd4"></path><path d="M0 762L12.8 774C25.7 786 51.3 810 77 824.2C102.7 838.3 128.3 842.7 154 836C179.7 829.3 205.3 811.7 231.2 797.8C257 784 283 774 308.8 774.8C334.7 775.7 360.3 787.3 386 785.8C411.7 784.3 437.3 769.7 463 764.8C488.7 760 514.3 765 527.2 767.5L540 770L540 961L527.2 961C514.3 961 488.7 961 463 961C437.3 961 411.7 961 386 961C360.3 961 334.7 961 308.8 961C283 961 257 961 231.2 961C205.3 961 179.7 961 154 961C128.3 961 102.7 961 77 961C51.3 961 25.7 961 12.8 961L0 961Z" fill="#2b33aa"></path><path d="M0 795L12.8 797.5C25.7 800 51.3 805 77 817.2C102.7 829.3 128.3 848.7 154 849.2C179.7 849.7 205.3 831.3 231.2 818.7C257 806 283 799 308.8 812.5C334.7 826 360.3 860 386 865C411.7 870 437.3 846 463 834C488.7 822 514.3 822 527.2 822L540 822L540 961L527.2 961C514.3 961 488.7 961 463 961C437.3 961 411.7 961 386 961C360.3 961 334.7 961 308.8 961C283 961 257 961 231.2 961C205.3 961 179.7 961 154 961C128.3 961 102.7 961 77 961C51.3 961 25.7 961 12.8 961L0 961Z" fill="#242a82"></path><path d="M0 858L12.8 865.7C25.7 873.3 51.3 888.7 77 894C102.7 899.3 128.3 894.7 154 895.3C179.7 896 205.3 902 231.2 905.2C257 908.3 283 908.7 308.8 907.5C334.7 906.3 360.3 903.7 386 898C411.7 892.3 437.3 883.7 463 884.2C488.7 884.7 514.3 894.3 527.2 899.2L540 904L540 961L527.2 961C514.3 961 488.7 961 463 961C437.3 961 411.7 961 386 961C360.3 961 334.7 961 308.8 961C283 961 257 961 231.2 961C205.3 961 179.7 961 154 961C128.3 961 102.7 961 77 961C51.3 961 25.7 961 12.8 961L0 961Z" fill="#1e215c"></path><path d="M0 924L12.8 919.2C25.7 914.3 51.3 904.7 77 902.7C102.7 900.7 128.3 906.3 154 908.3C179.7 910.3 205.3 908.7 231.2 910C257 911.3 283 915.7 308.8 910.7C334.7 905.7 360.3 891.3 386 890.5C411.7 889.7 437.3 902.3 463 903.2C488.7 904 514.3 893 527.2 887.5L540 882L540 961L527.2 961C514.3 961 488.7 961 463 961C437.3 961 411.7 961 386 961C360.3 961 334.7 961 308.8 961C283 961 257 961 231.2 961C205.3 961 179.7 961 154 961C128.3 961 102.7 961 77 961C51.3 961 25.7 961 12.8 961L0 961Z" fill="#171738"></path></svg>