<svg id="visual" viewBox="0 0 540 960" width="540" height="960" xmlns="http://www.w3.org/2000/svg" xmlns:xlink="http://www.w3.org/1999/xlink" version="1.1"><rect x="0" y="0" width="540" height="960" fill="#171738"></rect><defs><linearGradient id="grad1_0" x1="0%" y1="0%" x2="100%" y2="100%"><stop offset="30%" stop-color="#edf0ff" stop-opacity="1"></stop><stop offset="70%" stop-color="#edf0ff" stop-opacity="1"></stop></linearGradient></defs><defs><linearGradient id="grad1_1" x1="0%" y1="0%" x2="100%" y2="100%"><stop offset="30%" stop-color="#edf0ff" stop-opacity="1"></stop><stop offset="70%" stop-color="#cacde0" stop-opacity="1"></stop></linearGradient></defs><defs><linearGradient id="grad1_2" x1="0%" y1="0%" x2="100%" y2="100%"><stop offset="30%" stop-color="#a9abc2" stop-opacity="1"></stop><stop offset="70%" stop-color="#cacde0" stop-opacity="1"></stop></linearGradient></defs><defs><linearGradient id="grad1_3" x1="0%" y1="0%" x2="100%" y2="100%"><stop offset="30%" stop-color="#a9abc2" stop-opacity="1"></stop><stop offset="70%" stop-color="#898ba5" stop-opacity="1"></stop></linearGradient></defs><defs><linearGradient id="grad1_4" x1="0%" y1="0%" x2="100%" y2="100%"><stop offset="30%" stop-color="#6a6b88" stop-opacity="1"></stop><stop offset="70%" stop-color="#898ba5" stop-opacity="1"></stop></linearGradient></defs><defs><linearGradient id="grad1_5" x1="0%" y1="0%" x2="100%" y2="100%"><stop offset="30%" stop-color="#6a6b88" stop-opacity="1"></stop><stop offset="70%" stop-color="#4d4d6c" stop-opacity="1"></stop></linearGradient></defs><defs><linearGradient id="grad1_6" x1="0%" y1="0%" x2="100%" y2="100%"><stop offset="30%" stop-color="#323152" stop-opacity="1"></stop><stop offset="70%" stop-color="#4d4d6c" stop-opacity="1"></stop></linearGradient></defs><defs><linearGradient id="grad1_7" x1="0%" y1="0%" x2="100%" y2="100%"><stop offset="30%" stop-color="#323152" stop-opacity="1"></stop><stop offset="70%" stop-color="#171738" stop-opacity="1"></stop></linearGradient></defs><defs><linearGradient id="grad2_0" x1="0%" y1="0%" x2="100%" y2="100%"><stop offset="30%" stop-color="#edf0ff" stop-opacity="1"></stop><stop offset="70%" stop-color="#edf0ff" stop-opacity="1"></stop></linearGradient></defs><defs><linearGradient id="grad2_1" x1="0%" y1="0%" x2="100%" y2="100%"><stop offset="30%" stop-color="#cacde0" stop-opacity="1"></stop><stop offset="70%" stop-color="#edf0ff" stop-opacity="1"></stop></linearGradient></defs><defs><linearGradient id="grad2_2" x1="0%" y1="0%" x2="100%" y2="100%"><stop offset="30%" stop-color="#cacde0" stop-opacity="1"></stop><stop offset="70%" stop-color="#a9abc2" stop-opacity="1"></stop></linearGradient></defs><defs><linearGradient id="grad2_3" x1="0%" y1="0%" x2="100%" y2="100%"><stop offset="30%" stop-color="#898ba5" stop-opacity="1"></stop><stop offset="70%" stop-color="#a9abc2" stop-opacity="1"></stop></linearGradient></defs><defs><linearGradient id="grad2_4" x1="0%" y1="0%" x2="100%" y2="100%"><stop offset="30%" stop-color="#898ba5" stop-opacity="1"></stop><stop offset="70%" stop-color="#6a6b88" stop-opacity="1"></stop></linearGradient></defs><defs><linearGradient id="grad2_5" x1="0%" y1="0%" x2="100%" y2="100%"><stop offset="30%" stop-color="#4d4d6c" stop-opacity="1"></stop><stop offset="70%" stop-color="#6a6b88" stop-opacity="1"></stop></linearGradient></defs><defs><linearGradient id="grad2_6" x1="0%" y1="0%" x2="100%" y2="100%"><stop offset="30%" stop-color="#4d4d6c" stop-opacity="1"></stop><stop offset="70%" stop-color="#323152" stop-opacity="1"></stop></linearGradient></defs><defs><linearGradient id="grad2_7" x1="0%" y1="0%" x2="100%" y2="100%"><stop offset="30%" stop-color="#171738" stop-opacity="1"></stop><stop offset="70%" stop-color="#323152" stop-opacity="1"></stop></linearGradient></defs><g transform="translate(540, 0)"><path d="M0 270C-29.7 269.6 -59.5 269.2 -83.4 256.8C-107.4 244.4 -125.5 220 -146.4 201.4C-167.2 182.8 -190.8 170 -207.1 150.5C-223.4 130.9 -232.3 104.7 -241.6 78.5C-250.8 52.3 -260.4 26.1 -270 0L0 0Z" fill="#242445"></path><path d="M0 236.3C-26 235.9 -52.1 235.5 -73 224.7C-93.9 213.8 -109.8 192.5 -128.1 176.3C-146.3 160 -167 148.8 -181.2 131.7C-195.5 114.6 -203.3 91.6 -211.4 68.7C-219.5 45.8 -227.9 22.9 -236.2 0L0 0Z" fill="#3f3f5f"></path><path d="M0 202.5C-22.3 202.2 -44.6 201.9 -62.6 192.6C-80.5 183.3 -94.1 165 -109.8 151.1C-125.4 137.1 -143.1 127.5 -155.3 112.9C-167.5 98.2 -174.2 78.5 -181.2 58.9C-188.1 39.2 -195.3 19.6 -202.5 0L0 0Z" fill="#5c5c7a"></path><path d="M0 168.8C-18.6 168.5 -37.2 168.2 -52.1 160.5C-67.1 152.7 -78.4 137.5 -91.5 125.9C-104.5 114.3 -119.3 106.3 -129.4 94C-139.6 81.8 -145.2 65.4 -151 49.1C-156.8 32.7 -162.8 16.3 -168.7 0L0 0Z" fill="#797b96"></path><path d="M0 135C-14.9 134.8 -29.7 134.6 -41.7 128.4C-53.7 122.2 -62.7 110 -73.2 100.7C-83.6 91.4 -95.4 85 -103.6 75.2C-111.7 65.5 -116.2 52.3 -120.8 39.2C-125.4 26.1 -130.2 13.1 -135 0L0 0Z" fill="#999bb3"></path><path d="M0 101.3C-11.2 101.1 -22.3 100.9 -31.3 96.3C-40.3 91.6 -47.1 82.5 -54.9 75.5C-62.7 68.6 -71.6 63.8 -77.7 56.4C-83.8 49.1 -87.1 39.3 -90.6 29.4C-94.1 19.6 -97.7 9.8 -101.2 0L0 0Z" fill="#b9bcd1"></path><path d="M0 67.5C-7.4 67.4 -14.9 67.3 -20.9 64.2C-26.8 61.1 -31.4 55 -36.6 50.4C-41.8 45.7 -47.7 42.5 -51.8 37.6C-55.8 32.7 -58.1 26.2 -60.4 19.6C-62.7 13.1 -65.1 6.5 -67.5 0L0 0Z" fill="#dbdef0"></path><path d="M0 33.8C-3.7 33.7 -7.4 33.6 -10.4 32.1C-13.4 30.5 -15.7 27.5 -18.3 25.2C-20.9 22.9 -23.9 21.3 -25.9 18.8C-27.9 16.4 -29 13.1 -30.2 9.8C-31.4 6.5 -32.6 3.3 -33.7 0L0 0Z" fill="#edf0ff"></path></g><g transform="translate(0, 960)"><path d="M0 -270C29.5 -269.4 59 -268.9 83.4 -256.8C107.9 -244.7 127.3 -221.1 146.4 -201.4C165.4 -181.8 184 -166.2 203.1 -147.5C222.2 -128.9 241.7 -107.3 253 -82.2C264.2 -57.1 267.1 -28.6 270 0L0 0Z" fill="#242445"></path><path d="M0 -236.2C25.8 -235.8 51.6 -235.3 73 -224.7C94.4 -214.1 111.4 -193.4 128.1 -176.3C144.7 -159.1 161 -145.4 177.7 -129.1C194.4 -112.8 211.5 -93.9 221.4 -71.9C231.2 -50 233.7 -25 236.3 0L0 0Z" fill="#3f3f5f"></path><path d="M0 -202.5C22.1 -202.1 44.2 -201.7 62.6 -192.6C80.9 -183.5 95.5 -165.8 109.8 -151.1C124 -136.4 138 -124.6 152.3 -110.7C166.6 -96.7 181.3 -80.5 189.7 -61.6C198.2 -42.8 200.3 -21.4 202.5 0L0 0Z" fill="#5c5c7a"></path><path d="M0 -168.7C18.4 -168.4 36.9 -168 52.1 -160.5C67.4 -152.9 79.6 -138.2 91.5 -125.9C103.4 -113.6 115 -103.9 126.9 -92.2C138.8 -80.6 151.1 -67.1 158.1 -51.4C165.1 -35.7 166.9 -17.8 168.8 0L0 0Z" fill="#797b96"></path><path d="M0 -135C14.7 -134.7 29.5 -134.4 41.7 -128.4C53.9 -122.3 63.7 -110.5 73.2 -100.7C82.7 -90.9 92 -83.1 101.5 -73.8C111.1 -64.5 120.9 -53.6 126.5 -41.1C132.1 -28.6 133.6 -14.3 135 0L0 0Z" fill="#999bb3"></path><path d="M0 -101.2C11.1 -101 22.1 -100.8 31.3 -96.3C40.5 -91.8 47.8 -82.9 54.9 -75.5C62 -68.2 69 -62.3 76.1 -55.3C83.3 -48.3 90.7 -40.2 94.9 -30.8C99.1 -21.4 100.2 -10.7 101.3 0L0 0Z" fill="#b9bcd1"></path><path d="M0 -67.5C7.4 -67.4 14.7 -67.2 20.9 -64.2C27 -61.2 31.8 -55.3 36.6 -50.4C41.3 -45.5 46 -41.5 50.8 -36.9C55.5 -32.2 60.4 -26.8 63.2 -20.5C66.1 -14.3 66.8 -7.1 67.5 0L0 0Z" fill="#dbdef0"></path><path d="M0 -33.7C3.7 -33.7 7.4 -33.6 10.4 -32.1C13.5 -30.6 15.9 -27.6 18.3 -25.2C20.7 -22.7 23 -20.8 25.4 -18.4C27.8 -16.1 30.2 -13.4 31.6 -10.3C33 -7.1 33.4 -3.6 33.8 0L0 0Z" fill="#edf0ff"></path></g></svg>