<svg width="540" height="109" viewBox="0 0 540 109" fill="none" xmlns="http://www.w3.org/2000/svg">
<path d="M4.63636 0H27.8182L50.8636 63.9545H51.9545L81.3636 0H104.591L99.9546 93.0909H81.6818L84.7727 31.5455H83.9546L56.3636 92.6818H43.6364L22.1364 31.3182H21.3182L18.2273 93.0909H0L4.63636 0Z" fill="#171738"/>
<path d="M293.591 52.5909L291.545 93.0909H273.045L276.545 23.2727H294.182L293.591 35.4545H294.409C296.167 31.4242 298.909 28.2424 302.636 25.9091C306.364 23.5455 310.818 22.3636 316 22.3636C320.848 22.3636 325.015 23.4242 328.5 25.5455C332.015 27.6364 334.667 30.6364 336.455 34.5455C338.273 38.4545 339.03 43.1515 338.727 48.6364L336.5 93.0909H318L320.045 51.8182C320.288 47.4242 319.333 44 317.182 41.5455C315.061 39.0606 312 37.8182 308 37.8182C305.303 37.8182 302.894 38.4091 300.773 39.5909C298.682 40.7424 297 42.4242 295.727 44.6364C294.455 46.8182 293.742 49.4697 293.591 52.5909Z" fill="#171738"/>
<path d="M411.852 42.7727L394.943 44C394.67 42.4849 394.064 41.1061 393.125 39.8636C392.216 38.5909 390.958 37.5758 389.352 36.8182C387.746 36.0606 385.792 35.6818 383.489 35.6818C380.307 35.6818 377.58 36.3788 375.307 37.7727C373.064 39.1364 371.898 40.9242 371.807 43.1364C371.716 44.8636 372.322 46.303 373.625 47.4545C374.928 48.5758 377.231 49.5 380.534 50.2273L392.852 52.7727C399.519 54.1667 404.428 56.4394 407.58 59.5909C410.761 62.7121 412.231 66.8182 411.989 71.9091C411.746 76.3939 410.231 80.3333 407.443 83.7273C404.686 87.0909 400.973 89.7273 396.307 91.6364C391.64 93.5152 386.337 94.4546 380.398 94.4546C371.277 94.4546 364.095 92.5606 358.852 88.7727C353.61 84.9848 350.686 79.803 350.08 73.2273L368.216 72.0455C368.701 74.9849 370.019 77.2121 372.17 78.7273C374.322 80.2121 377.14 80.9545 380.625 80.9545C384.231 80.9545 387.186 80.2273 389.489 78.7727C391.792 77.3182 392.989 75.4848 393.08 73.2727C393.14 71.4848 392.474 70.0303 391.08 68.9091C389.716 67.7576 387.504 66.8636 384.443 66.2273L372.534 63.7727C365.807 62.4091 360.867 60.0303 357.716 56.6364C354.564 53.2424 353.125 48.9242 353.398 43.6818C353.61 39.2879 354.989 35.5 357.534 32.3182C360.11 29.1364 363.61 26.6818 368.034 24.9545C372.489 23.2273 377.625 22.3636 383.443 22.3636C392.14 22.3636 398.898 24.197 403.716 27.8636C408.534 31.5 411.246 36.4697 411.852 42.7727Z" fill="#171738"/>
<path d="M455.125 94.4546C448.004 94.4546 441.943 93 436.943 90.0909C431.943 87.1515 428.186 83 425.67 77.6364C423.186 72.2424 422.125 65.8788 422.489 58.5455C422.852 51.3636 424.549 45.0606 427.58 39.6364C430.64 34.1818 434.761 29.9394 439.943 26.9091C445.155 23.8788 451.155 22.3636 457.943 22.3636C462.458 22.3636 466.64 23.0909 470.489 24.5455C474.367 25.9697 477.716 28.1515 480.534 31.0909C483.383 34 485.534 37.6818 486.989 42.1364C488.443 46.5606 489.019 51.7727 488.716 57.7727L488.489 63H430.034L430.58 51.2727H471.534C471.655 48.3939 471.155 45.8333 470.034 43.5909C468.913 41.3182 467.277 39.5455 465.125 38.2727C463.004 36.9697 460.489 36.3182 457.58 36.3182C454.549 36.3182 451.822 37.0455 449.398 38.5C446.973 39.9545 445.034 41.8636 443.58 44.2273C442.155 46.5606 441.352 49.1364 441.17 51.9545L440.58 63.0909C440.398 66.7879 440.913 69.9394 442.125 72.5455C443.337 75.1212 445.125 77.0909 447.489 78.4545C449.883 79.7879 452.761 80.4545 456.125 80.4545C458.367 80.4545 460.413 80.1515 462.261 79.5455C464.11 78.9091 465.731 77.9697 467.125 76.7273C468.519 75.4849 469.595 73.9545 470.352 72.1364L487.443 73.4545C486.292 77.697 484.246 81.3939 481.307 84.5455C478.398 87.6667 474.716 90.1061 470.261 91.8636C465.837 93.5909 460.792 94.4546 455.125 94.4546Z" fill="#171738"/>
<path d="M540 23.2727L539.273 37.2727H497.773L498.5 23.2727H540ZM508.955 6.54546H527.455L524.227 71.7727C524.136 73.6818 524.348 75.1667 524.864 76.2273C525.409 77.2576 526.182 77.9697 527.182 78.3636C528.212 78.7576 529.379 78.9545 530.682 78.9545C531.621 78.9545 532.545 78.8788 533.455 78.7273C534.364 78.5455 535.061 78.4091 535.545 78.3182L537.818 92.2727C536.848 92.5758 535.485 92.9242 533.727 93.3182C532 93.7121 529.909 93.9545 527.455 94.0455C522.939 94.197 518.985 93.5758 515.591 92.1818C512.227 90.7576 509.652 88.5606 507.864 85.5909C506.076 82.6212 505.318 78.8788 505.591 74.3636L508.955 6.54546Z" fill="#171738"/>
<path d="M243.175 29.2673C247.721 33.2713 250.763 38.498 254.674 43.734C258.585 48.9793 263.373 54.2247 264.129 59.918C264.894 65.6113 261.627 71.734 258.146 77.7167C254.665 83.6993 250.95 89.5327 245.649 91.8847C240.338 94.2273 233.431 93.098 226.478 93.1727C219.525 93.2567 212.525 94.554 207.111 92.2673C201.698 89.9807 197.862 84.11 195.417 78.0527C192.981 71.986 191.926 65.7327 191.777 59.3953C191.627 53.058 192.383 46.6273 195.239 41.2793C198.095 35.9313 203.042 31.666 208.614 28.25C214.177 24.834 220.346 22.2767 226.459 22.3887C232.573 22.4913 238.63 25.2633 243.175 29.2673Z" fill="#171738"/>
<path d="M118.33 74.0726C115.62 68.6139 113.581 62.6551 113.552 56.495C113.524 50.3349 115.517 43.9586 119.392 39.1651C123.272 34.3643 129.029 31.1201 135.111 28.2503C141.194 25.3804 147.602 22.8848 154.177 22.865C160.759 22.8507 167.501 25.3196 172.766 29.5613C178.023 33.7973 181.795 39.8004 182.786 46.0324C183.778 52.2644 182.002 58.7235 180.988 65.1494C179.975 71.5752 179.743 77.9716 176.587 82.1847C173.431 86.3979 167.364 88.4259 161.595 90.0591C155.828 91.7053 150.358 92.9567 144.776 92.7779C139.18 92.6009 133.473 91.0068 128.937 87.7361C124.394 84.4598 121.037 79.5181 118.33 74.0726Z" fill="#171738"/>
</svg>
